<svg xmlns="http://www.w3.org/2000/svg" width="512" height="512" viewBox="0 0 512 512" id="ford"><path fill="#D712F9" d="M473.644 215.08c3.028-1.965 6.813-3.978 11.77-6.461 18.294-9.109 18.427-23.869 18.032-28.17-.949-10.389-8.437-24.592-38.73-33.266-4.593-1.311-8.7-1.948-12.554-1.948-9.978 0-16.137 4.358-19.555 8.023a25.15 25.15 0 0 0-1.925 2.331l-.997-1.668-.169-.284c-15.296-25.614-29.744-49.807-41.194-61.256-21.398-21.399-79.517-23.191-132.331-23.191-52.795 0-110.913 1.792-132.312 23.191-11.462 11.462-25.93 35.689-41.251 61.344l-1.114 1.865a25.21 25.21 0 0 0-1.923-2.324c-3.406-3.663-9.564-8.03-19.552-8.03-3.854 0-7.96.637-12.566 1.952-30.283 8.67-37.77 22.875-38.716 33.252-.396 4.306-.269 19.064 17.986 28.163 4.979 2.495 8.776 4.513 11.812 6.483-26.08 31.097-31.642 44.025-31.642 53.996v144.066c0 16.356 13.29 29.664 29.625 29.664h46.356c9.384 0 17.917-4.482 23.385-11.52.402.075.661.131.81.164 9.236 2.113 64.113 6.257 149.112 6.257 84.998 0 139.875-4.144 149.086-6.251.155-.035.424-.092.836-.17 5.469 7.036 14.001 11.52 23.385 11.52h46.346c16.341 0 29.635-13.308 29.635-29.664V269.08c-.002-9.971-5.566-22.903-31.645-54z"></path><linearGradient id="a" x1="256" x2="256" y1="69.189" y2="442.811" gradientUnits="userSpaceOnUse"><stop offset="0" stop-color="#FFF" stop-opacity="0"></stop><stop offset="1" stop-opacity=".3"></stop></linearGradient><path fill="url(#a)" d="M473.644 215.08c3.028-1.965 6.813-3.978 11.77-6.461 18.294-9.109 18.427-23.869 18.032-28.17-.949-10.389-8.437-24.592-38.73-33.266-4.593-1.311-8.7-1.948-12.554-1.948-9.978 0-16.137 4.358-19.555 8.023a25.15 25.15 0 0 0-1.925 2.331l-.997-1.668-.169-.284c-15.296-25.614-29.744-49.807-41.194-61.256-21.398-21.399-79.517-23.191-132.331-23.191-52.795 0-110.913 1.792-132.312 23.191-11.462 11.462-25.93 35.689-41.251 61.344l-1.114 1.865a25.21 25.21 0 0 0-1.923-2.324c-3.406-3.663-9.564-8.03-19.552-8.03-3.854 0-7.96.637-12.566 1.952-30.283 8.67-37.77 22.875-38.716 33.252-.396 4.306-.269 19.064 17.986 28.163 4.979 2.495 8.776 4.513 11.812 6.483-26.08 31.097-31.642 44.025-31.642 53.996v144.066c0 16.356 13.29 29.664 29.625 29.664h46.356c9.384 0 17.917-4.482 23.385-11.52.402.075.661.131.81.164 9.236 2.113 64.113 6.257 149.112 6.257 84.998 0 139.875-4.144 149.086-6.251.155-.035.424-.092.836-.17 5.469 7.036 14.001 11.52 23.385 11.52h46.346c16.341 0 29.635-13.308 29.635-29.664V269.08c-.002-9.971-5.566-22.903-31.645-54z"></path><path fill="#FFF" d="M145.307 322.472c-.078.01-8.69-.325-13.946 4.694-2.097 2.008-3.415 4.675-3.947 7.963h257.161c-.521-3.288-1.841-5.955-3.937-7.963-5.256-5.02-13.867-4.694-13.956-4.694-.049.01-.118.01-.167.01h-221.03c-.059 0-.119 0-.178-.01zM117.602 195.777c-3.602 13.946-6.24 38.04 9.468 58.944 20.058 26.681 63.441 40.214 128.93 40.214s108.872-13.533 128.93-40.214c15.708-20.904 13.07-44.998 9.468-58.944H117.602zM62.408 285.674c0 6.564 5.344 11.908 11.909 11.908s11.909-5.344 11.909-11.908-5.344-11.899-11.909-11.899c-6.564-.001-11.909 5.334-11.909 11.899zM475.762 189.241c2.411-1.2 6.406-3.681 6.121-6.82-.334-3.701-6.594-9.685-23.108-14.419-5.178-1.477-8.937-1.477-10.314.01-3.12 3.356 1.26 15.374 3.13 20.501.816 2.254 1.466 4.035 1.751 5.314.856 3.996-1.623 7.982-7.352 11.909a552.142 552.142 0 012.687 3.021c6.978-8.955 15.786-13.856 27.085-19.516zM430.714 413.59c-.776.069-4.575.403-9.26.876.619 3.789 3.906 6.692 7.853 6.692h46.346c4.4 0 7.982-3.592 7.982-8.012v-27.892c-2.214 4.222-5.147 8.483-9.016 12.391-10.47 10.551-25.243 15.924-43.905 15.945zM63.324 208.758c.876-.994 1.771-1.998 2.677-3.021-5.729-3.917-8.199-7.913-7.342-11.899.285-1.289.935-3.07 1.752-5.324 1.87-5.127 6.25-17.145 3.13-20.501-1.378-1.486-5.138-1.486-10.314-.01-16.515 4.734-22.774 10.718-23.109 14.419-.286 3.139 3.71 5.62 6.122 6.811 11.297 5.668 20.106 10.569 27.084 19.525zM37.381 397.645c-3.868-3.907-6.801-8.169-9.016-12.4v27.901c0 4.42 3.583 8.012 7.972 8.012h46.356c3.946 0 7.224-2.903 7.854-6.692-4.685-.473-8.484-.807-9.262-.876-18.66-.021-33.433-5.394-43.904-15.945zM437.683 297.582c6.564 0 11.909-5.344 11.909-11.908s-5.345-11.899-11.909-11.899-11.908 5.335-11.908 11.899 5.343 11.908 11.908 11.908z"></path><path fill="#FFF" d="M410.982 164.834c-13.315-22.302-28.414-47.586-37.971-57.143-8.424-8.425-30.186-12.637-53.579-14.743-23.395-2.106-48.433-2.106-63.422-2.106h-.02c-29.969 0-100.152 0-117.001 16.85-9.557 9.557-24.654 34.84-37.971 57.132-11.17 18.71-21.721 36.386-28.325 43.757-36.642 40.953-44.329 55.499-44.329 60.499v89.581c0 .217.069 20.226 13.966 34.182 9.153 9.202 22.312 13.857 39.102 13.857.099 0 .197.01.296.02.915.079 22.508 1.919 29.988 3.632 7.106 1.624 60.469 5.708 144.283 5.708s137.178-4.084 144.283-5.708c7.48-1.713 29.073-3.553 29.989-3.632.098-.01.195-.02.295-.02 16.829 0 29.998-4.675 39.161-13.906 13.365-13.475 13.887-32.351 13.906-33.984v-33.64-56.09c0-5-7.696-19.546-44.338-60.499-6.592-7.371-17.142-25.038-28.313-43.747zM96.088 190.757c9.035-17.656 39.25-75.635 49.042-80.241 9.704-4.567 93.971-3.868 110.87-3.681 16.898-.187 101.166-.886 110.859 3.681 9.803 4.606 40.018 62.585 49.054 80.241a3.47 3.47 0 0 1-.129 3.366 3.46 3.46 0 0 1-2.942 1.653h-11.348c3.69 15.442 5.718 40.766-11.063 63.078-21.426 28.512-66.659 42.97-134.432 42.97-67.771 0-113.005-14.458-134.431-42.97-16.781-22.312-14.753-47.635-11.063-63.078H99.159a3.461 3.461 0 0 1-2.943-1.653 3.473 3.473 0 0 1-.128-3.366zm289.265 131.39c4.233 4.016 6.378 9.538 6.378 16.427a3.449 3.449 0 0 1-3.444 3.445H123.714a3.45 3.45 0 0 1-3.445-3.445c0-6.889 2.146-12.411 6.378-16.427 7.135-6.78 17.667-6.604 18.906-6.555h220.893c1.242-.048 11.772-.225 18.907 6.555zM57.202 244.475a3.437 3.437 0 0 1 3.091-.797 3.441 3.441 0 0 1 2.421 2.067c8.602 21.425 54.436 27.439 57.615 27.833 10.344.107 18.72 8.562 18.72 18.926 0 10.255-8.267 18.571-18.818 18.936-4.458.148-8.809.227-12.913.227-40.923 0-63.678-7.41-69.543-22.656-7.619-19.774 18.325-43.532 19.427-44.536zm37.193 144.067a3.444 3.444 0 0 1-2.913 1.613c-.108 0-.216-.01-.325-.019-23.119-2.195-38.472-8.661-45.637-19.231-7.224-10.679-3.829-22.272-2.707-26.081l.148-.502c.501-1.792 2.096-3.918 6.781-3.918 9.704 0 32.498 9.006 35.066 10.039a3.431 3.431 0 0 1 2.067 3.986c-2.982 12.676 7.45 30.333 7.559 30.51.67 1.113.65 2.51-.039 3.603zM412.842 376.2c-10.403 14.96-46.051 32.794-156.842 32.794S109.552 391.16 99.159 376.2c-5.669-8.159-3.495-14.675-3.229-15.393a3.448 3.448 0 0 1 3.229-2.244h313.683c1.438 0 2.726.896 3.228 2.244.266.718 2.441 7.234-3.228 15.393zm53.639-5.305c-7.165 10.58-22.518 17.046-45.637 19.241-.109.009-.218.019-.325.019a3.42 3.42 0 0 1-2.913-1.613 3.42 3.42 0 0 1-.039-3.603c.167-.285 10.53-17.873 7.548-30.51a3.447 3.447 0 0 1 2.077-3.986c2.568-1.033 25.362-10.039 35.057-10.039 4.695 0 6.28 2.126 6.791 3.918l.148.492c1.121 3.809 4.517 15.412-2.707 26.081zm-17.195-125.151a3.448 3.448 0 0 1 3.198-2.155c1.576 0 2.077.462 5.562 4.094a95.992 95.992 0 0 1 7.037 8.228c6.997 9.241 10.551 17.774 10.551 25.343 0 6.456-2.736 15.48-15.747 21.829-11.683 5.698-30.255 8.582-55.204 8.582-4.104 0-8.454-.078-12.922-.227-10.552-.364-18.809-8.681-18.809-18.936 0-10.364 8.375-18.818 18.709-18.926 3.19-.393 49.014-6.406 57.625-27.832z"></path><path fill="#FFF" d="M79.662 355.827c-8.021-3.071-23.601-8.533-29.919-8.533-.187 0-.345.01-.483.01-1.063 3.711-3.168 12.155 1.969 19.733 5.325 7.863 16.82 13.069 34.22 15.501-2.992-6.437-6.899-17.046-5.787-26.711zM462.248 347.294c-6.308 0-21.888 5.462-29.909 8.533 1.111 9.665-2.805 20.274-5.787 26.711 17.4-2.432 28.896-7.638 34.22-15.501 5.139-7.588 3.031-16.022 1.969-19.733-.138-.001-.305-.01-.493-.01zM105.073 372.627c8.012 11.004 38.285 29.478 150.927 29.478s142.915-18.474 150.926-29.478c2.156-2.952 2.767-5.472 2.864-7.175H102.21c.098 1.693.708 4.213 2.863 7.175z"></path><path fill="#052C49" d="M99.159 195.777h11.347c-3.69 15.442-5.718 40.766 11.063 63.078 21.426 28.512 66.66 42.97 134.431 42.97 67.772 0 113.006-14.458 134.432-42.97 16.78-22.312 14.753-47.635 11.063-63.078h11.348c1.201 0 2.313-.63 2.942-1.653a3.47 3.47 0 00.129-3.366c-9.036-17.656-39.251-75.635-49.054-80.241-9.693-4.567-93.961-3.868-110.859-3.681-16.898-.187-101.166-.886-110.87 3.681-9.793 4.606-40.008 62.585-49.042 80.241a3.473 3.473 0 00.127 3.366 3.461 3.461 0 002.943 1.653zM384.93 254.72c-20.058 26.681-63.441 40.214-128.93 40.214s-108.872-13.533-128.93-40.214c-15.708-20.904-13.07-44.998-9.468-58.944h276.795c3.603 13.947 6.241 38.04-9.467 58.944zM148.063 116.745c6.397-3.001 69.573-3.454 107.897-3.021h.079c38.314-.433 101.5.01 107.887 3.021 5.108 2.51 25.49 37.784 43.275 72.142H104.798c17.784-34.358 38.167-69.631 43.265-72.142zM107.318 311.666c4.104 0 8.454-.078 12.913-.227 10.551-.364 18.818-8.681 18.818-18.936 0-10.364-8.375-18.818-18.72-18.926-3.179-.395-49.013-6.408-57.615-27.833a3.441 3.441 0 00-2.421-2.067 3.442 3.442 0 00-3.091.797c-1.102 1.004-27.045 24.762-19.428 44.535 5.866 15.247 28.621 22.657 69.544 22.657zm-19.212-38.719c15.373 5.591 30.471 7.362 31.622 7.49.128.02.256.02.384.02 6.644 0 12.046 5.403 12.046 12.047 0 6.525-5.344 11.811-12.165 12.047-4.38.147-8.651.226-12.676.226a275.35 275.35 0 01-14.537-.363c-4.448-.246-8.503-.591-12.204-1.034 7.293-2.588 12.539-9.536 12.539-17.705 0-4.913-1.909-9.381-5.009-12.728zm-1.88 12.727c0 6.564-5.344 11.908-11.909 11.908-6.564 0-11.909-5.344-11.909-11.908s5.344-11.899 11.909-11.899c6.565-.001 11.909 5.334 11.909 11.899zM58.6 252.752c3.681 5.806 9.487 10.453 16.082 14.153-.118-.01-.236-.021-.364-.021-10.363 0-18.798 8.426-18.798 18.789 0 5.462 2.362 10.363 6.083 13.808-11.023-3.603-15.688-8.503-17.401-12.941-4.233-10.975 6.997-26.003 14.398-33.788zM86.876 354.429a3.429 3.429 0 00-2.067-3.986c-2.568-1.033-25.363-10.039-35.066-10.039-4.685 0-6.28 2.126-6.781 3.918l-.148.502c-1.122 3.809-4.518 15.402 2.707 26.081 7.165 10.57 22.519 17.036 45.637 19.231.108.009.217.019.325.019a3.446 3.446 0 002.953-5.216c-.11-.177-10.542-17.834-7.56-30.51zm-35.648 12.608c-5.137-7.578-3.032-16.022-1.969-19.733.138 0 .296-.01.483-.01 6.318 0 21.898 5.462 29.919 8.533-1.112 9.665 2.795 20.274 5.787 26.711-17.4-2.432-28.895-7.638-34.22-15.501z"></path><path fill="#052C49" d="M453.323 214.044c6.229-8.533 14.28-13.012 25.51-18.641 9.29-4.626 10.196-10.512 9.911-13.612-.748-8.198-10.718-15.442-28.079-20.413-8.208-2.342-13.848-1.712-17.253 1.939-5.994 6.437-1.358 19.152 1.703 27.558.678 1.85 1.309 3.602 1.495 4.409.079.394-.649 2.263-5.059 5.137-6.25-8.297-15.226-23.335-24.653-39.122-14.183-23.749-28.848-48.314-39.015-58.481-18.867-18.867-88.439-18.867-121.873-18.867h-.02c-33.433 0-103.006 0-121.873 18.867-10.167 10.167-24.831 34.723-39.014 58.471-9.429 15.796-18.415 30.835-24.654 39.132-4.409-2.864-5.138-4.744-5.059-5.128.177-.816.817-2.568 1.496-4.418 3.061-8.405 7.696-21.121 1.692-27.558-3.395-3.651-9.035-4.281-17.243-1.939-17.361 4.971-27.331 12.214-28.079 20.413-.285 3.1.62 8.986 9.901 13.612 11.23 5.629 19.291 10.117 25.52 18.641-25.638 29.408-37.203 46.562-37.203 55.036v144.066c0 8.218 6.673 14.9 14.861 14.9h46.356c7.499 0 13.7-5.6 14.704-12.844 5.078.571 10.049 1.24 12.785 1.861 7.568 1.731 60.292 5.885 145.819 5.885 85.527 0 138.25-4.153 145.818-5.885 2.736-.621 7.707-1.29 12.785-1.861 1.004 7.244 7.204 12.844 14.703 12.844h46.346c8.199 0 14.872-6.683 14.872-14.9V269.08c.002-8.475-11.563-25.629-37.2-55.036zm.018-20.216c-.285-1.279-.935-3.061-1.751-5.314-1.87-5.127-6.25-17.145-3.13-20.501 1.378-1.486 5.137-1.486 10.314-.01 16.515 4.734 22.774 10.718 23.108 14.419.285 3.139-3.71 5.62-6.121 6.82-11.299 5.659-20.107 10.561-27.086 19.517a513.275 513.275 0 0 0-2.687-3.021c5.73-3.928 8.21-7.914 7.353-11.91zm-417.102-4.596c-2.412-1.191-6.407-3.671-6.122-6.811.334-3.701 6.594-9.685 23.109-14.419 5.177-1.477 8.936-1.477 10.314.01 3.12 3.356-1.26 15.374-3.13 20.501-.817 2.254-1.467 4.035-1.752 5.324-.856 3.986 1.614 7.982 7.342 11.899-.906 1.023-1.801 2.027-2.677 3.021-6.977-8.955-15.786-13.856-27.084-19.525zm46.454 231.926H36.337c-4.389 0-7.972-3.592-7.972-8.012v-27.901c2.215 4.231 5.147 8.493 9.016 12.4 10.472 10.551 25.245 15.924 43.905 15.944.778.069 4.577.403 9.262.876-.631 3.79-3.909 6.693-7.855 6.693zm400.942-8.012c0 4.42-3.582 8.012-7.982 8.012h-46.346c-3.946 0-7.233-2.903-7.853-6.692 4.685-.473 8.483-.807 9.26-.876 18.662-.021 33.435-5.394 43.905-15.944 3.868-3.907 6.802-8.169 9.016-12.391v27.891zm0-87.987v33.651c-.02 1.634-.541 20.51-13.906 33.984-9.163 9.231-22.332 13.906-39.161 13.906-.1 0-.197.01-.295.02-.916.079-22.509 1.919-29.989 3.632-7.105 1.624-60.469 5.708-144.283 5.708s-137.177-4.084-144.283-5.708c-7.48-1.713-29.073-3.553-29.988-3.632-.099-.01-.197-.02-.296-.02-16.79 0-29.949-4.655-39.102-13.857-13.897-13.956-13.966-33.965-13.966-34.182V269.08c0-5 7.687-19.546 44.329-60.499 6.604-7.371 17.155-25.047 28.325-43.757 13.316-22.292 28.414-47.576 37.971-57.132 16.85-16.85 87.033-16.85 117.001-16.85h.02c14.989 0 40.027 0 63.422 2.106 23.394 2.106 45.155 6.318 53.579 14.743 9.557 9.557 24.655 34.84 37.971 57.143 11.171 18.709 21.722 36.376 28.315 43.747 36.642 40.953 44.338 55.499 44.338 60.499v56.079z"></path><path fill="#052C49" d="M372.952 292.504c0 10.255 8.257 18.571 18.809 18.936 4.468.148 8.818.227 12.922.227 24.949 0 43.521-2.884 55.204-8.582 13.011-6.349 15.747-15.373 15.747-21.829 0-7.569-3.554-16.103-10.551-25.343a95.992 95.992 0 00-7.037-8.228c-3.484-3.632-3.985-4.094-5.562-4.094a3.448 3.448 0 00-3.198 2.155c-8.611 21.425-54.436 27.439-57.625 27.833-10.334.106-18.709 8.56-18.709 18.925zm80.449-39.752c7.401 7.775 18.631 22.813 14.399 33.788-1.713 4.438-6.378 9.339-17.401 12.941 3.729-3.444 6.083-8.346 6.083-13.808 0-10.363-8.436-18.789-18.799-18.789-.128 0-.246.011-.363.011 6.592-3.701 12.4-8.337 16.081-14.143zm-15.718 21.022c6.564 0 11.909 5.335 11.909 11.899s-5.345 11.908-11.909 11.908-11.908-5.344-11.908-11.908 5.343-11.899 11.908-11.899zm-45.42 6.663c1.161-.128 16.248-1.899 31.632-7.49-3.101 3.347-5.01 7.815-5.01 12.727 0 8.169 5.246 15.117 12.539 17.705-7.411.886-16.221 1.397-26.741 1.397-4.024 0-8.297-.078-12.687-.226-6.82-.236-12.154-5.521-12.154-12.047 0-6.644 5.403-12.047 12.036-12.047.129.001.257.001.385-.019zM126.647 322.147c-4.232 4.016-6.378 9.538-6.378 16.427a3.449 3.449 0 003.445 3.445h264.572a3.449 3.449 0 003.444-3.445c0-6.889-2.145-12.411-6.378-16.427-7.135-6.78-17.665-6.604-18.906-6.555H145.553c-1.239-.048-11.771-.225-18.906 6.555zm239.869.335c.049 0 .118 0 .167-.01.089 0 8.7-.325 13.956 4.694 2.096 2.008 3.416 4.675 3.937 7.963H127.415c.532-3.288 1.85-5.955 3.947-7.963 5.256-5.02 13.868-4.685 13.946-4.694.059.01.118.01.177.01h221.031zM412.842 358.563H99.159a3.45 3.45 0 00-3.229 2.244c-.266.718-2.441 7.233 3.229 15.393 10.393 14.96 46.05 32.794 156.841 32.794S402.439 391.16 412.842 376.2c5.669-8.159 3.494-14.675 3.228-15.393a3.447 3.447 0 00-3.228-2.244zm-5.916 14.064c-8.011 11.004-38.284 29.478-150.926 29.478s-142.915-18.474-150.927-29.478c-2.155-2.962-2.766-5.481-2.864-7.175H409.79c-.097 1.703-.708 4.223-2.864 7.175zM469.039 344.322c-.511-1.792-2.096-3.918-6.791-3.918-9.694 0-32.488 9.006-35.057 10.039a3.447 3.447 0 00-2.077 3.986c2.982 12.637-7.381 30.225-7.548 30.51a3.42 3.42 0 00.039 3.603 3.418 3.418 0 002.913 1.613c.107 0 .216-.01.325-.019 23.119-2.195 38.472-8.661 45.637-19.241 7.225-10.669 3.828-22.272 2.707-26.081l-.148-.492zm-8.267 22.715c-5.323 7.863-16.819 13.069-34.22 15.501 2.982-6.437 6.898-17.046 5.787-26.711 8.021-3.071 23.602-8.533 29.909-8.533.188 0 .354.01.492.01 1.063 3.71 3.17 12.145-1.968 19.733z"></path></svg>